<svg width="1000" height="1000" viewBox="0 0 200 20" xmlns="http://www.w3.org/2000/svg">
    <g id="c1">
<polygon points="37.9,18.7 38.23889,18.40889 36.56889,16.84" />
<polygon points="37.51111,18.922222 37.9,18.7 36.4,16.98" />
<polygon points="38.23889,18.40889 38.50889,18.042223 36.56889,16.84" />
<polygon points="36.702225,16.66 36.56889,16.84 38.50889,18.042223" />
<polygon points="36.56889,16.84 36.4,16.98 37.9,18.7" />
<polygon points="37.064445,19.082222 37.51111,18.922222 36.4,16.98" />
<polygon points="38.50889,18.042223 38.71,17.6 36.702225,16.66" />
<polygon points="36.800003,16.44 36.702225,16.66 38.71,17.6" />
<polygon points="36.56,19.18 37.064445,19.082222 36.4,16.98" />
<polygon points="38.71,17.6 38.897503,16.795 36.800003,16.44" />
<polygon points="36.4,16.98 36.05,17.11 36.56,19.18" />
<polygon points="36.89,16.039999 36.800003,16.44 38.897503,16.795" />
<polygon points="38.897503,16.795 38.96,15.82 36.89,16.039999" />
<polygon points="36.05,17.11 35.8525,17.1475 36.56,19.18" />
<polygon points="36.92,15.559999 36.89,16.039999 38.96,15.82" />
<polygon points="35.78,19.23 36.56,19.18 35.8525,17.1475" />
<polygon points="38.96,15.82 38.917503,15.122499 36.92,15.559999" />
<polygon points="34.77,18.19 35.78,19.23 35.8525,17.1475" />
<polygon points="34.920002,19.24 35.78,19.23 34.8725,18.7475" />
<polygon points="36.7925,14.6325 36.92,15.559999 38.917503,15.122499" />
<polygon points="35.8525,17.1475 35.64,17.16 34.77,18.19" />
<polygon points="38.917503,15.122499 38.79,14.389999 36.7925,14.6325" />
<polygon points="36.45,13.61 36.7925,14.6325 38.550003,13.617499" />
<polygon points="34.77,18.19 34.8725,18.7475 35.78,19.23" />
<polygon points="35.64,17.16 35.07,17.18 34.77,18.19" />
<polygon points="38.550003,13.617499 38.170002,12.799999 36.45,13.61" />
<polygon points="38.79,14.389999 38.550003,13.617499 36.7925,14.6325" />
<polygon points="38.170002,12.799999 37.6075,11.945 36.45,13.61" />
<polygon points="35.787502,12.5025 36.45,13.61 37.6075,11.945" />
<polygon points="34.607502,17.6325 34.77,18.19 35.07,17.18" />
<polygon points="37.6075,11.945 36.82,11.059999 35.787502,12.5025" />
<polygon points="35.07,17.18 34.38,17.14 34.607502,17.6325" />
<polygon points="39.32,5.0599995 37.760002,4.0999994 37.02,4.8999987" />
<polygon points="34.7,11.32 35.787502,12.5025 36.82,11.059999" />
<polygon points="37.760002,4.0999994 37.420002,4.1800003 37.02,4.8999987" />
<polygon points="38.1,8.129999 39.32,5.0599995 37.02,4.8999987" />
<polygon points="36.82,11.059999 38.1,8.129999 35.35,9.700001" />
<polygon points="35.35,9.700001 34.7,11.32 36.82,11.059999" />
<polygon points="37.02,4.1800003 37.02,4.8999987 37.420002,4.1800003" />
<polygon points="37.02,4.8999987 35.99,7.919999 38.1,8.129999" />
<polygon points="35.99,7.919999 35.35,9.700001 38.1,8.129999" />
<polygon points="23.98,9.099999 27.880001,9.099999 22.16,7.579999" />
<polygon points="23.98,10.559999 23.98,9.099999 22.16,12.08" />
<polygon points="29.84,7.579999 22.16,7.579999 27.880001,9.099999" />
<polygon points="22.16,7.579999 22.16,12.08 23.98,9.099999" />
<polygon points="27.880001,10.559999 23.98,10.559999 22.16,12.08" />
<polygon points="27.880001,9.099999 27.880001,10.559999 29.84,7.579999" />
<polygon points="22.16,12.08 29.84,12.08 27.880001,10.559999" />
<polygon points="29.84,12.08 29.84,7.579999 27.880001,10.559999" />
<polygon points="20.92,6.5999994 30.960001,6.5999994 20.92,4.799999" />
<polygon points="30.960001,6.5999994 30.960001,4.799999 20.92,4.799999" />
<polygon points="30.18,13.839999 28.96,12.799999 28.52,12.9" />
<polygon points="30.18,13.839999 28.52,12.9 28,13.26" />
<polygon points="28.380001,15.349999 30.18,13.839999 28,13.26" />
<polygon points="28,12.9 28,13.26 28.52,12.9" />
<polygon points="28,13.26 27.29,14.039999 28.380001,15.349999" />
<polygon points="27.29,14.039999 26.400002,14.91 28.380001,15.349999" />
<polygon points="26.265,16.425 26.46,16.7 28.380001,15.349999" />
<polygon points="28.380001,15.349999 26.400002,14.91 26.265,16.425" />
<polygon points="26,16.119999 26.265,16.425 26.400002,14.91" />
<polygon points="26.400002,14.91 25.5,15.639999 26,16.119999" />
<polygon points="26.46,16.244999 20.84,16.44 20.94,18.2" />
<polygon points="20.94,18.2 30.94,17.76 26.46,16.244999" />
<polygon points="30.94,17.76 30.98,16.08 26.46,16.244999" />
<polygon points="21.76,14.54 28.44,14.54 21.76,12.9" />
<polygon points="28.44,14.54 28.44,12.9 21.76,12.9" />
<polygon points="27.119999,15.54 25.02,15.54 25.02,19.66" />
<polygon points="27.119999,19.72 27.119999,15.54 25.02,19.66" />
<polygon points="24.68,19.94 22.68,19.92 23.04,20.82" />
<polygon points="27.075,20.36 27.119999,19.72 25.010555,19.745556" />
<polygon points="25.02,19.66 25.010555,19.745556 27.119999,19.72" />
<polygon points="23.04,20.82 23.19,21.3 24.68,19.94" />
<polygon points="26.94,20.84 27.075,20.36 24.982224,19.815556" />
<polygon points="25.010555,19.745556 24.982224,19.815556 27.075,20.36" />
<polygon points="24.78389,19.932222 24.68,19.94 25,21.7" />
<polygon points="24.68,19.94 23.19,21.3 25,21.7" />
<polygon points="26.782223,21.086666 26.94,20.84 26.54889,21.293333" />
<polygon points="24.982224,19.815556 26.54889,21.293333 26.94,20.84" />
<polygon points="24.868889,19.90889 24.78389,19.932222 25,21.7" />
<polygon points="23.28,21.74 25,21.7 23.19,21.3" />
<polygon points="26.24,21.460001 26.54889,21.293333 24.982224,19.815556" />
<polygon points="24.982224,19.815556 24.935001,19.87 26.24,21.460001" />
<polygon points="24.935001,19.87 24.868889,19.90889 25.67,21.62" />
<polygon points="25,21.7 25.67,21.62 24.868889,19.90889" />
<polygon points="25.67,21.62 26.24,21.460001 24.935001,19.87" />
<polygon points="24.880001,3.0999985 24.880001,5.879999 26.98,3.0999985" />
<polygon points="24.880001,5.879999 26.98,5.879999 26.98,3.0999985" />
<polygon points="37.66,6.1799994 37.66,4.1800003 33.760002,6.1799994" />
<polygon points="33.760002,21.74 33.760002,6.1799994 31.68,21.74" />
<polygon points="37.66,4.1800003 31.68,4.1800003 33.760002,6.1799994" />
<polygon points="31.68,4.1800003 31.68,21.74 33.760002,6.1799994" />
</g>
</svg>
